<?xml version="1.0" encoding="UTF-8"?>
<svg fill="#fad29c" viewBox="0 0 450 450" xmlns="http://www.w3.org/2000/svg">
<path d="M225 447c122.607 0 222-99.393 222-222S347.607 3 225 3 3 102.393 3 225s99.393 222 222 222zm0 3c124.264 0 225-100.736 225-225S349.264 0 225 0 0 100.736 0 225s100.736 225 225 225z" fill-rule="evenodd"/>
<path d="M185.112 250l-12.816-50.4h9.792l10.656 44.28h1.008l10.656-44.28h9.792L201.384 250h-16.272zm35.148 0v-50.4h17.64l8.712 43.92h1.296l8.712-43.92h17.64V250h-9.216v-43.416h-1.296L255.108 250h-15.696l-8.64-43.416h-1.296V250h-9.216zM31.426 290.809c-1.053-2.844-1.101-5.393-.144-7.647.979-2.261 2.943-3.945 5.892-5.052l5.505-2.067c2.949-1.107 5.518-1.124 7.707-.051 2.211 1.064 3.842 3.018 4.896 5.863 1.045 2.823 1.076 5.291.092 7.405-.954 2.127-2.774 3.695-5.461 4.704l-.197.074-1.58-4.267.328-.123c1.354-.508 2.327-1.31 2.917-2.403.598-1.072.61-2.385.034-3.939-.567-1.531-1.483-2.559-2.746-3.081s-2.703-.481-4.32.126l-5.636 2.116c-1.595.598-2.711 1.516-3.348 2.752-.615 1.227-.639 2.607-.072 4.139.575 1.553 1.438 2.538 2.587 2.954 1.179.43 2.435.394 3.768-.106l.59-.221 1.58 4.267-.459.172c-2.687 1.009-5.094 1.027-7.22.056-2.096-.958-3.667-2.848-4.713-5.671zm9.313 21.518c-.77-1.546-1.129-3.079-1.079-4.601a8.21 8.21 0 0 1 1.397-4.181c.881-1.266 2.131-2.315 3.75-3.147l.374-.192c1.619-.832 3.181-1.228 4.686-1.189 1.526.029 2.902.463 4.128 1.302 1.247.828 2.255 2.015 3.024 3.561.759 1.524 1.077 3.027.954 4.507a7.81 7.81 0 0 1-1.491 4.071c-.871 1.235-2.095 2.258-3.672 3.068l-1.339.688-5.632-11.31c-1.038.586-1.701 1.426-1.991 2.519s-.164 2.183.377 3.269c.551 1.107 1.196 1.799 1.933 2.076a5.56 5.56 0 0 0 2.18.374l-.074 4.091c-.685-.015-1.49-.139-2.414-.372-.893-.223-1.797-.677-2.711-1.361-.894-.695-1.694-1.753-2.401-3.173zm8.042-8.895l3.62 7.268c.851-.542 1.385-1.276 1.602-2.2.228-.904.086-1.868-.423-2.892-.531-1.065-1.222-1.772-2.073-2.121s-1.76-.368-2.725-.055zm8.36-2.605l5.762-.05 2.215 4.449-6.261-.953-1.716-3.446zm-8.903 24.359l14.62-9.361 2.27 3.699-1.651 1.057.33.537c.724-.159 1.376-.078 1.956.243.592.341 1.096.85 1.511 1.526l1.098 1.79-3.301 2.114-1.135-1.85c-.586-.954-1.323-1.576-2.212-1.866-.87-.302-1.825-.119-2.867.548l-8.312 5.322-2.306-3.759zm11.045 17.664c-.737-.994-1.231-2.013-1.484-3.059-.234-1.06-.204-2.075.093-3.046.328-.967.962-1.817 1.9-2.549s1.886-1.118 2.845-1.157c.991-.034 1.942.23 2.852.792.943.566 1.803 1.374 2.582 2.423l2.836 3.823.772-.603c.644-.503 1.015-1.118 1.114-1.846.117-.743-.158-1.564-.825-2.463-.653-.881-1.342-1.379-2.067-1.494-.706-.13-1.42-.016-2.143.341l-1.343-4.101c.866-.321 1.764-.46 2.696-.418.964.046 1.926.345 2.887.897.993.556 1.935 1.434 2.825 2.633 1.362 1.837 1.989 3.641 1.88 5.413s-1.018 3.326-2.729 4.662l-5.103 3.985c-.552.431-.633.908-.244 1.433l.834 1.125-2.869 2.24-1.751-2.361c-.514-.694-.773-1.395-.775-2.103a2.05 2.05 0 0 1 .824-1.709l.028-.021-.396-.534c-.276.097-.696.158-1.258.183-.544.011-1.163-.158-1.855-.504s-1.401-1.008-2.124-1.982zm3.272-1.579c.737.993 1.601 1.591 2.593 1.793 1.024.206 1.987-.043 2.888-.746l.276-.216-2.648-3.57c-.487-.656-1.007-1.063-1.561-1.223s-1.079-.045-1.576.343a1.94 1.94 0 0 0-.776 1.538c-.021.638.247 1.331.803 2.081zm7.36 16.238l12.087-12.46 3.018 3.119-1.316 1.357.438.452c.617-.2 1.315-.2 2.094.002.795.185 1.591.688 2.386 1.51.86.888 1.379 1.777 1.557 2.665a4.91 4.91 0 0 1-.099 2.564l.438.453c.796-.251 1.616-.292 2.46-.124s1.729.73 2.653 1.686c.746.771 1.257 1.635 1.533 2.59.308.955.315 1.953.022 2.991-.26 1.039-.878 2.061-1.853 3.066l-7.945 8.19-3.066-3.17 7.725-7.963c.666-.687.991-1.374.975-2.061.001-.704-.308-1.374-.924-2.012-.698-.721-1.469-1.048-2.313-.981-.812.066-1.632.526-2.461 1.381l-7.14 7.36-3.066-3.169 7.725-7.964c.666-.686.991-1.373.975-2.06 0-.704-.308-1.375-.924-2.012-.698-.721-1.469-1.048-2.313-.982-.812.067-1.632.527-2.461 1.381l-7.14 7.361-3.066-3.17zm22.849 22.212l10.717-13.658 3.371 2.844-10.717 13.657-3.371-2.843zm13.656-13.833c-.607-.512-.966-1.15-1.077-1.915-.093-.75.12-1.455.638-2.116s1.142-1.02 1.869-1.078c.745-.043 1.42.192 2.027.703.624.527.983 1.165 1.076 1.915s-.119 1.455-.638 2.116-1.141 1.02-1.868 1.078-1.403-.176-2.027-.703zm2.031 34.534l4.905-7.54-.515-.364c-.407.199-.9.336-1.478.413-.566.058-1.208-.024-1.926-.246-.713-.188-1.498-.585-2.356-1.19-1.144-.807-2.018-1.836-2.621-3.089-.591-1.273-.819-2.675-.685-4.207s.716-3.09 1.747-4.674l.305-.469c1.031-1.585 2.204-2.726 3.52-3.424s2.646-.988 3.987-.869c1.373.112 2.623.565 3.748 1.359 1.296.914 2.132 1.832 2.507 2.752.407.914.587 1.77.543 2.565l.514.363 1.146-1.76 3.546 2.501-13.283 20.42-3.604-2.541zm1.817-11.387c1.125.793 2.285 1.083 3.48.87 1.227-.218 2.299-1.032 3.215-2.44l.191-.294c.916-1.408 1.238-2.736.965-3.984-.261-1.268-.944-2.292-2.05-3.072s-2.272-1.06-3.499-.841c-1.215.199-2.28 1.003-3.196 2.411l-.191.294c-.916 1.408-1.244 2.746-.984 4.013.273 1.249.963 2.263 2.069 3.043zm17.391 15.127c-1.186-.651-2.094-1.495-2.722-2.531-.598-1.047-.897-2.195-.898-3.445s.318-2.512.954-3.785l4.633-9.267 3.866 2.122-4.476 8.953c-.585 1.169-.747 2.197-.487 3.085.281.899.943 1.634 1.986 2.207 1.186.651 2.305.76 3.356.326 1.062-.455 1.952-1.402 2.672-2.842l3.945-7.889 3.865 2.122-7.763 15.527-3.804-2.088 1.017-2.035-.552-.303c-.507.387-1.222.646-2.148.776s-2.073-.18-3.444-.933zm22.53 10.919c-1.597-.654-2.887-1.573-3.869-2.757a8.51 8.51 0 0 1-1.777-4.092c-.204-1.545.008-3.171.634-4.88l.145-.394c.627-1.709 1.503-3.051 2.631-4.025 1.135-.997 2.432-1.587 3.89-1.771 1.466-.205 2.998.019 4.596.674 1.576.646 2.815 1.569 3.715 2.769.909 1.179 1.455 2.536 1.636 4.072.19 1.514-.02 3.104-.631 4.769l-.518 1.413-11.692-4.79c-.366 1.135-.289 2.212.231 3.231s1.342 1.76 2.464 2.22c1.145.468 2.079.561 2.804.279a5.39 5.39 0 0 0 1.845-1.172l2.685 3.141c-.511.446-1.182.889-2.014 1.329-.803.427-1.767.687-2.894.78-1.119.071-2.412-.194-3.881-.796zm-.075-12.088l7.514 3.078c.259-.977.159-1.887-.302-2.731-.439-.835-1.187-1.469-2.245-1.903-1.101-.451-2.08-.524-2.937-.22s-1.533.896-2.03 1.776zm20.562 19.098c-2.172-.637-3.83-1.634-4.976-2.99s-1.638-2.959-1.478-4.808l4.157.125c-.046.838.052 1.535.295 2.092.265.564.64 1.026 1.125 1.387.514.345 1.095.613 1.745.803.985.289 1.756.333 2.313.132.563-.224.91-.596 1.043-1.116s.011-.981-.368-1.384c-.372-.425-1.028-.872-1.967-1.342l-.897-.445c-1.106-.568-2.092-1.185-2.956-1.851-.859-.69-1.49-1.47-1.893-2.341s-.462-1.862-.179-2.969c.428-1.673 1.359-2.773 2.794-3.3 1.44-.55 3.146-.536 5.116.042 1.858.545 3.296 1.416 4.314 2.614s1.543 2.53 1.577 3.998l-4.242.068c.04-.911-.173-1.63-.64-2.156-.445-.519-1.07-.897-1.876-1.133s-1.46-.27-1.96-.101a1.28 1.28 0 0 0-.934.966c-.138.542-.019 1.015.36 1.417.384.38.939.75 1.666 1.109l.897.445c1.196.594 2.249 1.23 3.158 1.91.937.664 1.608 1.431 2.011 2.303.431.855.496 1.871.195 3.046-.451 1.763-1.439 2.944-2.964 3.542-1.497.582-3.309.561-5.436-.063zm31.247 6.258c-3.009-.383-5.31-1.522-6.904-3.418-1.592-1.919-2.233-4.446-1.923-7.581l.578-5.851c.31-3.135 1.427-5.426 3.351-6.874 1.927-1.471 4.395-2.015 7.404-1.632 2.986.38 5.208 1.498 6.665 3.353 1.483 1.834 2.083 4.18 1.801 7.036l-.021.209-4.514-.575.035-.348c.142-1.44-.146-2.676-.864-3.708-.695-1.029-1.865-1.648-3.508-1.857-1.62-.206-2.943.131-3.967 1.011s-1.622 2.18-1.792 3.899l-.592 5.991c-.167 1.695.161 3.112.986 4.252.827 1.116 2.051 1.777 3.671 1.984 1.644.209 2.905-.101 3.784-.93.904-.848 1.426-1.981 1.566-3.398l.062-.626 4.513.574-.048.488c-.282 2.856-1.326 5.004-3.133 6.443-1.78 1.419-4.164 1.939-7.15 1.558zm23.442 1.388c-1.726-.005-3.284-.36-4.674-1.064s-2.492-1.722-3.31-3.054-1.243-2.931-1.277-4.797l-.01-.56c-.034-1.867.333-3.464 1.102-4.791s1.836-2.339 3.2-3.035 2.909-1.041 4.636-1.036 3.285.359 4.674 1.063 2.493 1.722 3.31 3.054 1.244 2.931 1.278 4.798l.01.56c.034 1.866-.334 3.463-1.103 4.79a7.63 7.63 0 0 1-3.2 3.035c-1.364.695-2.909 1.042-4.636 1.037zm-.071-3.92c1.353.004 2.466-.424 3.337-1.285.87-.884 1.291-2.142 1.261-3.775l-.007-.35c-.029-1.633-.495-2.883-1.398-3.748-.879-.889-2.007-1.336-3.384-1.34-1.353-.004-2.465.436-3.336 1.32-.871.861-1.291 2.107-1.262 3.74l.007.35c.03 1.633.496 2.895 1.399 3.784.902.865 2.03 1.3 3.383 1.304zm14.964 3.024l-2.225-17.217 4.312-.499.291 2.257.626-.073c.2-.634.649-1.261 1.345-1.882.693-.644 1.816-1.055 3.369-1.235 1.344-.156 2.555.021 3.633.531 1.097.484 1.994 1.237 2.691 2.26.694 1 1.134 2.218 1.319 3.653l1.327 10.274-4.38.507-1.283-9.927c-.167-1.296-.617-2.231-1.35-2.804-.71-.575-1.656-.795-2.838-.658-1.344.156-2.329.728-2.954 1.716-.628.965-.839 2.246-.633 3.843l1.131 8.747-4.381.507zm29.176-4.566c-1.117.244-2.106.101-2.966-.428-.842-.556-1.394-1.415-1.655-2.576l-2.148-9.562-4.24.925-.798-3.551 4.24-.925-1.181-5.259 4.308-.94 1.182 5.259 4.651-1.015.797 3.552-4.65 1.014 1.979 8.811c.154.683.55.955 1.188.815l3.283-.716.798 3.552-4.788 1.044zm18.445-4.656c-1.64.542-3.204.678-4.693.408-1.474-.3-2.773-.964-3.897-1.994-1.109-1.059-1.948-2.452-2.516-4.181l-.131-.399c-.569-1.73-.717-3.339-.445-4.83.264-1.512.903-2.817 1.918-3.914 1.008-1.119 2.332-1.949 3.971-2.491 1.617-.534 3.145-.633 4.581-.297 1.43.314 2.688 1.005 3.776 2.071 1.08 1.044 1.896 2.408 2.45 4.093l.47 1.43-11.998 3.962c.416 1.116 1.14 1.897 2.17 2.343s2.122.478 3.275.098c1.174-.388 1.954-.928 2.341-1.621s.621-1.397.705-2.113l4.013.665c-.12.679-.367 1.461-.739 2.345-.358.856-.944 1.688-1.759 2.498-.821.787-1.986 1.43-3.492 1.927zm-7.508-9.278l7.711-2.547c-.402-.924-1.041-1.561-1.917-1.91-.855-.357-1.824-.356-2.91.003-1.13.373-1.933.957-2.408 1.753s-.634 1.696-.476 2.701zm20.982 4.166l-7.45-15.68 3.898-1.907.811 1.707.566-.277c.023-.66.258-1.334.706-2.021.439-.708 1.172-1.313 2.199-1.815 1.111-.544 2.107-.758 2.988-.644.871.094 1.65.401 2.336.922l.566-.277c.036-.848.274-1.653.713-2.413s1.257-1.433 2.452-2.017c.964-.472 1.934-.687 2.91-.645.986.011 1.911.325 2.772.943.873.586 1.61 1.511 2.21 2.776l4.897 10.306-3.961 1.937-4.762-10.021c-.41-.864-.936-1.399-1.576-1.605-.651-.228-1.374-.147-2.171.243-.901.441-1.463 1.079-1.686 1.916-.211.804-.062 1.744.449 2.819l4.401 9.263-3.962 1.937-4.761-10.021c-.411-.864-.936-1.399-1.577-1.605-.65-.228-1.374-.146-2.17.243-.901.441-1.463 1.08-1.686 1.916-.212.805-.062 1.744.448 2.819l4.402 9.263-3.962 1.938zm31.612-8.492l-13.269-20.429 3.589-2.439 1.144 1.761.521-.354c-.04-.791.147-1.637.562-2.54.402-.922 1.25-1.823 2.543-2.702 1.158-.786 2.42-1.221 3.785-1.303 1.353-.101 2.691.202 4.013.911s2.499 1.856 3.529 3.441l.305.47c1.029 1.584 1.607 3.138 1.734 4.66s-.113 2.911-.715 4.167a7.85 7.85 0 0 1-2.661 3.035c-.868.59-1.671.981-2.409 1.172-.706.198-1.345.265-1.915.201-.563-.097-1.059-.239-1.487-.428l-.521.355 4.9 7.543-3.648 2.479zm1.883-13.803c1.139-.774 1.84-1.772 2.103-2.995.269-1.255-.054-2.587-.969-3.996l-.19-.293c-.915-1.409-1.984-2.22-3.207-2.432-1.236-.232-2.413.032-3.533.793s-1.814 1.768-2.083 3.023c-.283 1.236.034 2.558.949 3.967l.191.294c.915 1.408 1.99 2.229 3.226 2.461 1.223.212 2.394-.062 3.513-.822zm20.617-11.008c-1.302 1.134-2.694 1.884-4.177 2.248s-2.946.294-4.39-.212-2.759-1.478-3.946-2.918l-.356-.433c-1.187-1.44-1.904-2.934-2.152-4.482a8.2 8.2 0 0 1 .517-4.489c.593-1.445 1.54-2.734 2.842-3.869s2.694-1.884 4.177-2.248 2.946-.294 4.39.211 2.759 1.479 3.946 2.919l.356.432c1.187 1.441 1.904 2.935 2.152 4.483a8.2 8.2 0 0 1-.517 4.489c-.593 1.445-1.54 2.734-2.842 3.869zm-2.493-3.026c1.021-.889 1.59-1.958 1.71-3.207.104-1.267-.363-2.53-1.401-3.791l-.223-.27c-1.038-1.261-2.166-1.933-3.384-2.017-1.214-.117-2.341.277-3.378 1.182-1.021.889-1.583 1.967-1.688 3.234-.119 1.249.341 2.503 1.379 3.764l.223.27c1.038 1.261 2.174 1.942 3.406 2.044 1.217.083 2.336-.319 3.356-1.209zm13.069-7.418l-12.25-12.3 2.974-3.161 1.383 1.389.432-.459c-.318-.683-.392-1.352-.223-2.009.185-.673.55-1.298 1.093-1.876l1.44-1.529 2.766 2.777-1.487 1.581c-.768.815-1.186 1.701-1.253 2.658-.084.94.31 1.848 1.183 2.724l6.965 6.993-3.023 3.212zm13.925-14.834c-.763.973-1.608 1.71-2.534 2.21-.944.485-1.908.694-2.892.626-.988-.101-1.936-.535-2.846-1.303s-1.495-1.627-1.755-2.579c-.264-.985-.238-2.001.078-3.046.313-1.078.872-2.131 1.679-3.159l2.938-3.745-.749-.632c-.624-.527-1.291-.754-2-.681-.727.058-1.436.528-2.128 1.409-.677.862-.985 1.67-.924 2.424.044.738.318 1.427.824 2.067l-3.55 2.314c-.505-.792-.846-1.66-1.025-2.604-.182-.977-.125-2.012.17-3.106.291-1.127.898-2.278 1.82-3.452 1.411-1.799 2.965-2.853 4.66-3.162s3.371.236 5.03 1.635l4.949 4.175c.535.451 1.004.42 1.408-.094l.864-1.101 2.782 2.347-1.815 2.313c-.533.679-1.133 1.103-1.799 1.273s-1.268.029-1.803-.422l-.027-.023-.41.523c.156.254.312.66.467 1.218.137.543.123 1.202-.041 1.979s-.622 1.642-1.371 2.596zm-2.253-2.908c.763-.972 1.124-1.98 1.082-3.022-.045-1.075-.505-1.982-1.378-2.719l-.268-.226-2.744 3.497c-.504.643-.766 1.26-.787 1.853s.21 1.092.691 1.499 1.026.544 1.631.414 1.197-.561 1.773-1.296zm11.813-10.714l-14.115-10.106 2.432-3.679 14.115 10.106-2.432 3.679zm-14.549-13.128c-.438.662-1.02 1.077-1.746 1.246-.713.148-1.411-.022-2.094-.511s-1.085-1.107-1.207-1.853c-.108-.766.056-1.48.493-2.142.451-.681 1.033-1.096 1.746-1.245s1.411.021 2.094.51 1.085 1.107 1.207 1.854-.043 1.46-.493 2.141zm20.744 3.914l-14.906-8.9 2.081-3.809 1.953 1.167.302-.553c-.386-.557-.626-1.311-.717-2.262-.112-.962.207-2.13.957-3.502.648-1.187 1.484-2.06 2.506-2.618 1.013-.59 2.124-.849 3.334-.778 1.19.058 2.406.458 3.648 1.2l8.896 5.311-2.115 3.87-8.594-5.131c-1.122-.67-2.12-.886-2.994-.647-.863.218-1.58.849-2.15 1.893-.649 1.188-.762 2.342-.339 3.464.404 1.11 1.297 2.078 2.679 2.903l7.573 4.522-2.114 3.87zm14.456-27.755c-.658 1.596-1.57 2.858-2.735 3.787a7.63 7.63 0 0 1-4.007 1.551c-1.506.106-3.087-.22-4.742-.977l-.382-.175c-1.655-.757-2.949-1.747-3.883-2.969-.955-1.232-1.512-2.602-1.671-4.111-.181-1.519.058-3.076.716-4.672.65-1.575 1.565-2.785 2.745-3.629 1.16-.854 2.488-1.323 3.986-1.407 1.476-.094 3.02.228 4.633.966l1.369.626-4.818 11.681c1.1.452 2.149.445 3.148-.021s1.731-1.26 2.193-2.382c.472-1.143.575-2.096.309-2.858s-.637-1.42-1.116-1.972l3.094-2.547c.427.555.849 1.274 1.266 2.157.406.852.646 1.859.721 3.022.054 1.153-.221 2.463-.826 3.93zm-11.768-.731l3.097-7.506c-.948-.331-1.836-.289-2.664.127-.818.395-1.445 1.121-1.881 2.178-.454 1.1-.539 2.1-.254 2.999s.852 1.634 1.702 2.202zm19.231-20.06c-.64 2.171-1.629 3.795-2.967 4.872s-2.914 1.473-4.726 1.187l.152-4.227c.82.102 1.505.048 2.053-.162.555-.233 1.011-.584 1.368-1.055.342-.5.609-1.075.8-1.724.29-.985.339-1.768.145-2.349-.216-.588-.578-.967-1.087-1.137a1.29 1.29 0 0 0-1.36.283c-.419.352-.863.99-1.33 1.916l-.443.885c-.564 1.089-1.176 2.053-1.836 2.89-.682.829-1.452 1.42-2.309 1.773s-1.829.348-2.913-.015c-1.638-.547-2.71-1.569-3.217-3.066-.529-1.504-.504-3.241.077-5.211.547-1.857 1.412-3.265 2.593-4.222s2.492-1.405 3.932-1.342l.038 4.327c-.894-.101-1.6.068-2.119.509-.512.419-.887 1.032-1.125 1.837s-.274 1.47-.112 1.991c.14.514.454.852.941 1.015.531.177.995.087 1.393-.272.375-.367.741-.908 1.098-1.625l.443-.884c.591-1.18 1.223-2.21 1.896-3.092.657-.911 1.414-1.543 2.272-1.896.842-.382 1.838-.381 2.989.003 1.726.577 2.877 1.662 3.453 3.256.56 1.564.527 3.409-.099 5.535zM35 225a5 5 0 1 1-10 0 5 5 0 1 1 10 0zm392 0a5 5 0 1 1-10 0 5 5 0 1 1 10 0zM84.898 118.872L61.69 108.636l2.985-3.708 20.206 9.222.307-.382-13.71-17.292 2.985-3.708 15.396 19.942-4.96 6.162zm16.972-18.127c-.894.854-1.843 1.469-2.847 1.846-1.02.361-2.027.451-3.021.272-.994-.213-1.908-.743-2.742-1.592s-1.327-1.749-1.478-2.701c-.15-.985-.002-1.966.446-2.941.448-1.008 1.145-1.964 2.09-2.866l3.443-3.287-.687-.699c-.573-.582-1.224-.879-1.956-.891-.748-.028-1.526.344-2.337 1.118-.793.757-1.204 1.504-1.233 2.241-.045.72.152 1.419.59 2.098l-3.894 1.83c-.419-.826-.663-1.706-.731-2.641-.068-.967.114-1.964.546-2.989.432-1.058 1.189-2.102 2.269-3.133 1.654-1.579 3.363-2.42 5.127-2.522s3.406.619 4.927 2.167l4.539 4.618c.491.499.973.523 1.445.072l1.013-.967 2.552 2.596-2.127 2.03c-.625.596-1.287.938-1.986 1.025a2.03 2.03 0 0 1-1.786-.618l-.024-.025-.481.459c.129.264.238.675.329 1.234.075.542-.019 1.179-.28 1.912s-.83 1.518-1.708 2.356zm-1.945-3.078c.894-.854 1.383-1.788 1.466-2.802.083-1.047-.276-1.978-1.078-2.793l-.245-.25-3.216 3.069c-.591.564-.932 1.132-1.025 1.704s.082 1.082.524 1.532a1.92 1.92 0 0 0 1.611.591c.633-.055 1.286-.405 1.962-1.05zm14.992-9.009l-15.32-19.119 3.481-2.708 15.319 19.119-3.48 2.708zM132.4 76.991c-1.463.918-2.954 1.426-4.473 1.526a8.22 8.22 0 0 1-4.3-.979c-1.348-.752-2.516-1.892-3.504-3.421l-.228-.353c-.988-1.528-1.537-3.043-1.646-4.545-.122-1.521.174-2.932.888-4.234.701-1.322 1.783-2.441 3.246-3.359 1.443-.905 2.907-1.37 4.392-1.393 1.473-.043 2.873.318 4.201 1.083 1.315.745 2.453 1.862 3.416 3.351l.817 1.264-10.702 6.716c.686.975 1.587 1.552 2.704 1.733s2.189-.052 3.217-.697c1.047-.657 1.672-1.366 1.875-2.127s.255-1.496.158-2.206l4.079-.329c.053.683.009 1.496-.132 2.438-.134.91-.496 1.854-1.087 2.831-.604.957-1.577 1.857-2.921 2.701zm-9.65-7.125l6.878-4.316c-.623-.793-1.406-1.252-2.348-1.377-.923-.137-1.868.098-2.837.706-1.008.633-1.643 1.389-1.907 2.271s-.192 1.787.214 2.716zm-3.419-8.06l-.618-5.727 4.21-2.642-.33 6.322-3.262 2.046zm26.113 7.262l-7.74-15.539 3.908-1.889.874 1.755.567-.274c-.081-.738.068-1.381.448-1.927.4-.556.958-1.007 1.672-1.352l1.891-.914 1.748 3.509-1.954.944c-1.009.487-1.703 1.16-2.084 2.018-.391.837-.311 1.809.24 2.916l4.401 8.835-3.971 1.919zm15.464-6.937l-6.398-16.138 4.116-1.583 6.398 16.138-4.116 1.583zm-5.088-18.816c-.741.285-1.467.289-2.179.013-.69-.285-1.19-.817-1.499-1.598s-.309-1.506.003-2.176c.334-.678.871-1.16 1.611-1.444.762-.293 1.488-.297 2.179-.013s1.189.817 1.499 1.598.309 1.506-.003 2.176-.849 1.151-1.611 1.444zm25.226 12.68c-1.665.456-3.238.511-4.717.166a8.16 8.16 0 0 1-3.817-2.185c-1.066-1.112-1.845-2.543-2.34-4.295l-.114-.404c-.494-1.752-.573-3.363-.237-4.834.33-1.493 1.027-2.761 2.091-3.801 1.057-1.063 2.419-1.823 4.084-2.279 1.643-.45 3.177-.47 4.601-.062 1.418.386 2.649 1.138 3.692 2.256 1.036 1.095 1.795 2.496 2.277 4.203l.409 1.448-12.187 3.335c.368 1.133 1.059 1.948 2.072 2.445s2.105.585 3.275.265c1.193-.326 1.998-.825 2.415-1.495s.682-1.36.798-2.069l3.99.867c-.15.67-.431 1.436-.842 2.299-.395.834-1.018 1.633-1.869 2.398-.857.743-2.051 1.323-3.581 1.742zm-7.118-9.627l7.832-2.143c-.363-.941-.975-1.608-1.838-2.001-.84-.399-1.811-.448-2.914-.146-1.148.314-1.977.855-2.487 1.624s-.708 1.657-.593 2.666zm33.861 3.675l-1.226-24.469 8.565-.412 5.298 21.12.63-.03 3.162-21.527 8.565-.412 1.225 24.469-4.474.215-1.056-21.079-.629.03-3.14 21.281-7.621.367-5.251-20.877-.629.03 1.056 21.079-4.475.215zm40.512.767c-1.717-.181-3.222-.692-4.516-1.532a7.84 7.84 0 0 1-2.91-3.369c-.646-1.406-.869-3.036-.668-4.892l.06-.557c.201-1.856.767-3.403 1.699-4.642a7.91 7.91 0 0 1 3.564-2.686c1.444-.552 3.025-.737 4.742-.556s3.223.692 4.517 1.532 2.263 1.963 2.909 3.369.869 3.036.669 4.892l-.061.557c-.2 1.856-.766 3.403-1.698 4.642a7.9 7.9 0 0 1-3.565 2.686c-1.444.552-3.025.737-4.742.556zm.421-3.897c1.346.142 2.507-.17 3.481-.935.977-.788 1.553-1.995 1.729-3.619l.038-.348c.175-1.624-.132-2.912-.921-3.863-.763-.972-1.829-1.53-3.198-1.675-1.346-.142-2.507.181-3.485.97-.974.765-1.549 1.96-1.725 3.584l-.037.348c-.176 1.624.13 2.923.916 3.898.789.951 1.857 1.498 3.202 1.64zm21.646 7.433c-1.315-.317-2.399-.89-3.251-1.72-.824-.847-1.377-1.868-1.657-3.063s-.251-2.484.092-3.866l2.49-10.056 4.287 1.033-2.406 9.716c-.314 1.268-.243 2.293.212 3.075.478.787 1.296 1.32 2.452 1.599 1.316.317 2.443.133 3.383-.553.944-.708 1.61-1.844 1.997-3.407l2.12-8.561 4.288 1.033-4.174 16.851-4.219-1.017.547-2.208-.612-.148c-.413.501-1.061.933-1.944 1.296s-2.085.362-3.605-.005zm16.963 4.486l6.078-16.261 4.079 1.482-.686 1.836.592.215c.486-.568 1.061-.905 1.723-1.012.685-.099 1.4-.013 2.146.258l1.973.717-1.372 3.672-2.04-.741c-1.052-.383-2.025-.413-2.917-.092-.884.299-1.543 1.028-1.976 2.187l-3.455 9.245-4.145-1.506zm15.799 6.186l7.433-15.688 4.006 1.844-7.433 15.688-4.006-1.844zm10.305-16.601c-.72-.332-1.225-.847-1.514-1.545-.268-.688-.222-1.412.138-2.171s.893-1.258 1.601-1.498c.728-.23 1.453-.179 2.173.153.742.342 1.247.856 1.514 1.545s.222 1.412-.138 2.171-.893 1.258-1.6 1.498-1.432.188-2.174-.153zm5.373 14.427l.292-.478c.95-1.552 2.072-2.69 3.363-3.415 1.304-.744 2.645-1.101 4.021-1.07a7.85 7.85 0 0 1 3.947 1.127c1.363.811 2.25 1.664 2.659 2.56s.616 1.697.621 2.405l.541.322 1.097-1.791 3.729 2.219-10.674 17.431c-.621 1.015-1.416 1.642-2.383 1.881-.979.259-1.97.09-2.973-.506l-9.986-5.941 2.011-3.283 8.662 5.154c.562.334 1.025.203 1.391-.394l2.358-3.85-.542-.322c-.395.199-.877.36-1.445.484-.556.104-1.202.086-1.937-.053s-1.565-.483-2.487-1.032c-1.224-.728-2.18-1.69-2.869-2.888-.657-1.205-.962-2.54-.913-4.005.061-1.484.566-3.002 1.517-4.554zm5.358 8.808c1.163.692 2.361.902 3.594.631s2.258-1.073 3.074-2.406l.183-.298c.828-1.353 1.071-2.62.728-3.802-.312-1.19-1.059-2.136-2.242-2.84-1.163-.692-2.361-.902-3.594-.631-1.221.251-2.245 1.053-3.074 2.406l-.183.298c-.816 1.333-1.059 2.601-.727 3.802s1.078 2.148 2.241 2.84zm17.874 17.476c-1.354-1.071-2.325-2.3-2.911-3.686-.554-1.39-.703-2.832-.449-4.326.287-1.498 1.005-2.953 2.155-4.364l.265-.326c1.149-1.411 2.427-2.408 3.834-2.991a7.69 7.69 0 0 1 4.356-.526c1.496.232 2.921.883 4.276 1.954 1.336 1.057 2.255 2.274 2.757 3.653.516 1.361.622 2.783.317 4.266-.291 1.465-.996 2.886-2.116 4.261l-.951 1.167-9.91-7.838c-.714.952-.978 1.978-.791 3.078s.757 2.026 1.709 2.779c.97.767 1.853 1.124 2.649 1.069s1.52-.241 2.171-.559l1.634 3.702c-.64.268-1.435.487-2.386.657-.917.166-1.941.13-3.07-.108-1.115-.257-2.295-.877-3.539-1.862zm3.728-11.285l6.369 5.037c.56-.836.748-1.713.564-2.632-.166-.905-.697-1.712-1.594-2.421-.933-.738-1.866-1.089-2.798-1.053s-1.779.393-2.541 1.069zm11.576 24.886c-.864-.884-1.486-1.822-1.866-2.812-.363-1.006-.452-1.999-.267-2.978.218-.979.759-1.877 1.622-2.696s1.779-1.301 2.746-1.446c1-.145 1.994.006 2.983.45 1.022.446 1.99 1.136 2.903 2.071l3.326 3.405.711-.674c.592-.562.896-1.203.909-1.924.031-.737-.345-1.505-1.127-2.307-.767-.785-1.523-1.192-2.271-1.223-.73-.047-1.441.144-2.13.573l-1.847-3.844a7.14 7.14 0 0 1 2.682-.71c.982-.063 1.993.12 3.032.549 1.072.43 2.13 1.179 3.173 2.248 1.598 1.636 2.446 3.323 2.546 5.061s-.638 3.354-2.212 4.847l-4.699 4.455c-.508.482-.533.956-.077 1.424l.978 1.001-2.641 2.505-2.054-2.103c-.603-.618-.948-1.271-1.035-1.961a1.96 1.96 0 0 1 .633-1.757l.025-.024-.465-.476c-.268.126-.686.233-1.253.32-.55.072-1.196-.023-1.939-.283s-1.539-.824-2.386-1.692zm3.128-1.905c.864.884 1.811 1.369 2.84 1.455 1.062.085 2.008-.265 2.838-1.052l.253-.241-3.105-3.18c-.571-.584-1.146-.923-1.726-1.016s-1.099.077-1.556.511a1.86 1.86 0 0 0-.604 1.585c.055.624.408 1.269 1.06 1.937zm12.945 19.972c-.811-1.083-1.278-2.214-1.403-3.393-.091-1.173.139-2.307.69-3.4s1.403-2.058 2.555-2.894l8.381-6.09 2.643 3.53-8.098 5.884c-1.057.769-1.661 1.597-1.812 2.485-.137.907.151 1.837.864 2.79.811 1.083 1.799 1.663 2.963 1.74 1.184.063 2.427-.379 3.73-1.326l7.135-5.184 2.642 3.53-14.043 10.205-2.601-3.475 1.84-1.337-.377-.504c-.64.119-1.417.034-2.332-.253s-1.84-1.057-2.777-2.308z"/>
</svg>
