<svg width="450" height="450" viewBox="0 0 450 450" fill="none" xmlns="http://www.w3.org/2000/svg">
<path fill-rule="evenodd" clip-rule="evenodd" d="M225 447C347.607 447 447 347.607 447 225C447 102.393 347.607 3 225 3C102.393 3 3 102.393 3 225C3 347.607 102.393 447 225 447ZM225 450C349.264 450 450 349.264 450 225C450 100.736 349.264 0 225 0C100.736 0 0 100.736 0 225C0 349.264 100.736 450 225 450Z" fill="#FAD29C"/>
<path d="M185.112 250L172.296 199.6H182.088L192.744 243.88H193.752L204.408 199.6H214.2L201.384 250H185.112Z" fill="#FAD29C"/>
<path d="M220.26 250V199.6H237.9L246.612 243.52H247.908L256.62 199.6H274.26V250H265.044V206.584H263.748L255.108 250H239.412L230.772 206.584H229.476V250H220.26Z" fill="#FAD29C"/>
<path d="M35 225C35 227.761 32.7614 230 30 230C27.2386 230 25 227.761 25 225C25 222.239 27.2386 220 30 220C32.7614 220 35 222.239 35 225Z" fill="#FAD29C"/>
<path d="M427 225C427 227.761 424.761 230 422 230C419.239 230 417 227.761 417 225C417 222.239 419.239 220 422 220C424.761 220 427 222.239 427 225Z" fill="#FAD29C"/>
<path d="M84.8978 118.872L61.6894 108.636L64.674 104.928L84.8801 114.15L85.1874 113.768L71.477 96.4757L74.4616 92.7676L89.8574 112.71L84.8978 118.872Z" fill="#FAD29C"/>
<path d="M101.87 100.745C100.976 101.599 100.027 102.214 99.0233 102.591C98.0036 102.952 96.9965 103.042 96.0021 102.863C95.0081 102.65 94.094 102.12 93.2598 101.271C92.4257 100.422 91.933 99.5219 91.782 98.5695C91.6315 97.5843 91.7801 96.6039 92.2279 95.6283C92.6761 94.6199 93.3729 93.6647 94.3181 92.7625L97.7615 89.476L97.0745 88.7772C96.502 88.1947 95.8502 87.8977 95.119 87.886C94.3714 87.8577 93.5926 88.2302 92.7823 89.0035C91.989 89.7607 91.5782 90.5076 91.5498 91.2442C91.5051 91.9642 91.7017 92.6634 92.1397 93.342L88.2458 95.1717C87.8268 94.346 87.5832 93.4659 87.515 92.5311C87.4473 91.5637 87.6294 90.5674 88.0613 89.5424C88.4938 88.4847 89.2501 87.4403 90.3304 86.4092C91.9846 84.8304 93.6934 83.9896 95.457 83.8867C97.2206 83.7838 98.863 84.5061 100.384 86.0536L104.923 90.6713C105.414 91.1705 105.896 91.1946 106.368 90.7435L107.381 89.7769L109.933 92.3728L107.806 94.4027C107.181 94.9988 106.519 95.3403 105.82 95.4275C105.12 95.5146 104.525 95.3085 104.034 94.8093L104.01 94.7844L103.529 95.2435C103.658 95.5076 103.767 95.9189 103.858 96.4772C103.933 97.0189 103.839 97.6562 103.578 98.3891C103.317 99.122 102.748 99.9074 101.87 100.745ZM99.9247 97.6675C100.819 96.8137 101.308 95.8796 101.391 94.8654C101.474 93.8185 101.115 92.8873 100.313 92.0719L100.068 91.8223L96.8523 94.8913C96.2615 95.4552 95.92 96.023 95.8278 96.5948C95.7355 97.1666 95.9102 97.6772 96.3519 98.1264C96.7935 98.5757 97.3306 98.7727 97.9631 98.7172C98.5957 98.6618 99.2495 98.3119 99.9247 97.6675Z" fill="#FAD29C"/>
<path d="M114.917 88.6579L99.5966 69.5385L103.078 66.8309L118.397 85.9502L114.917 88.6579Z" fill="#FAD29C"/>
<path d="M132.4 76.9911C130.937 77.9089 129.446 78.4175 127.927 78.517C126.415 78.5845 124.981 78.2582 123.627 77.5382C122.279 76.7862 121.111 75.646 120.123 74.1176L119.895 73.7649C118.907 72.2365 118.358 70.7216 118.249 69.2203C118.127 67.6993 118.423 66.2879 119.137 64.9859C119.838 63.6644 120.92 62.5447 122.383 61.627C123.826 60.7216 125.29 60.2574 126.775 60.2343C128.248 60.1916 129.648 60.5525 130.976 61.3169C132.291 62.0618 133.429 63.1788 134.392 64.668L135.209 65.9318L124.507 72.6475C125.193 73.6221 126.094 74.1996 127.211 74.3802C128.328 74.5607 129.4 74.3285 130.428 73.6836C131.475 73.0263 132.1 72.3173 132.303 71.5566C132.506 70.7958 132.558 70.0605 132.461 69.3507L136.54 69.0217C136.593 69.7048 136.549 70.5175 136.408 71.4598C136.274 72.3701 135.912 73.3136 135.321 74.2904C134.717 75.2475 133.744 76.1478 132.4 76.9911ZM122.75 69.8661L129.628 65.5502C129.005 64.7572 128.222 64.2982 127.28 64.1732C126.357 64.0359 125.412 64.271 124.443 64.8787C123.435 65.5112 122.8 66.2682 122.536 67.1497C122.273 68.0313 122.344 68.9367 122.75 69.8661ZM119.331 61.8064L118.713 56.0797L122.923 53.4381L122.593 59.76L119.331 61.8064Z" fill="#FAD29C"/>
<path d="M145.444 69.0682L137.704 53.5292L141.612 51.6407L142.486 53.3952L143.053 53.121C142.972 52.3828 143.121 51.7405 143.501 51.1943C143.901 50.6379 144.459 50.1871 145.173 49.8419L147.064 48.9282L148.812 52.437L146.858 53.3812C145.849 53.8686 145.155 54.5411 144.774 55.3989C144.383 56.2358 144.463 57.2077 145.014 58.3146L149.415 67.1493L145.444 69.0682Z" fill="#FAD29C"/>
<path d="M160.908 62.1305L154.51 45.9925L158.626 44.4097L165.024 60.5477L160.908 62.1305ZM155.82 43.314C155.079 43.5987 154.353 43.603 153.641 43.3268C152.951 43.0422 152.451 42.5095 152.142 41.7286C151.832 40.9477 151.833 40.2224 152.145 39.5526C152.479 38.8744 153.016 38.3929 153.756 38.1082C154.518 37.8151 155.244 37.8108 155.935 38.0954C156.625 38.38 157.124 38.9127 157.434 39.6936C157.744 40.4744 157.743 41.1998 157.431 41.8696C157.119 42.5394 156.582 43.0209 155.82 43.314Z" fill="#FAD29C"/>
<path d="M181.046 55.9946C179.381 56.4504 177.808 56.5057 176.329 56.1606C174.866 55.7869 173.593 55.0586 172.512 53.9757C171.446 52.8641 170.667 51.4326 170.172 49.6811L170.058 49.2769C169.564 47.5253 169.485 45.9141 169.821 44.4432C170.151 42.9499 170.848 41.6827 171.912 40.6417C172.969 39.5782 174.331 38.8186 175.996 38.3629C177.639 37.9133 179.173 37.8928 180.597 38.3013C182.015 38.6873 183.246 39.4391 184.289 40.5568C185.325 41.652 186.084 43.053 186.566 44.7596L186.975 46.208L174.788 49.5428C175.156 50.6757 175.847 51.4907 176.86 51.9875C177.873 52.4844 178.965 52.5727 180.135 52.2525C181.328 51.9261 182.133 51.4277 182.55 50.7572C182.967 50.0868 183.232 49.3971 183.348 48.6883L187.338 49.5557C187.188 50.2258 186.907 50.992 186.496 51.8545C186.101 52.6882 185.478 53.4876 184.627 54.2526C183.77 54.9952 182.576 55.5759 181.046 55.9946ZM173.928 46.3673L181.76 44.2242C181.397 43.2832 180.785 42.6163 179.922 42.2233C179.082 41.8242 178.111 41.7756 177.008 42.0773C175.86 42.3914 175.031 42.9328 174.521 43.7014C174.011 44.47 173.813 45.3586 173.928 46.3673Z" fill="#FAD29C"/>
<path d="M207.789 50.0432L206.563 25.5738L215.128 25.1617L220.426 46.2814L221.056 46.2511L224.218 24.7243L232.783 24.3122L234.008 48.7815L229.534 48.9968L228.478 27.9182L227.849 27.9485L224.709 49.229L217.088 49.5957L211.837 28.719L211.208 28.7493L212.264 49.8279L207.789 50.0432Z" fill="#FAD29C"/>
<path d="M248.301 50.81C246.584 50.6289 245.079 50.1182 243.785 49.2778C242.491 48.4374 241.521 47.3145 240.875 45.909C240.229 44.5035 240.006 42.8728 240.207 41.0169L240.267 40.4602C240.468 38.6043 241.034 37.0568 241.966 35.8178C242.898 34.5787 244.086 33.6834 245.53 33.1318C246.974 32.5803 248.555 32.3951 250.272 32.5762C251.989 32.7574 253.495 33.2681 254.789 34.1085C256.082 34.9489 257.052 36.0718 257.698 37.4773C258.344 38.8828 258.567 40.5135 258.367 42.3694L258.306 42.9261C258.106 44.782 257.54 46.3295 256.608 47.5685C255.676 48.8076 254.488 49.7029 253.043 50.2544C251.599 50.806 250.018 50.9912 248.301 50.81ZM248.722 46.9127C250.068 47.0547 251.229 46.743 252.203 45.9777C253.18 45.1892 253.756 43.983 253.932 42.3591L253.97 42.0112C254.145 40.3873 253.838 39.0997 253.049 38.1483C252.286 37.1762 251.22 36.618 249.851 36.4735C248.505 36.3316 247.344 36.6549 246.366 37.4434C245.392 38.2087 244.817 39.4033 244.641 41.0272L244.604 41.3751C244.428 42.999 244.734 44.2982 245.52 45.2728C246.309 46.2241 247.377 46.7708 248.722 46.9127Z" fill="#FAD29C"/>
<path d="M270.368 54.3459C269.053 54.0289 267.969 53.4557 267.117 52.6263C266.293 51.7797 265.74 50.7586 265.46 49.5629C265.179 48.3672 265.209 47.0786 265.552 45.697L268.042 35.6408L272.329 36.6739L269.923 46.3903C269.609 47.6587 269.68 48.6837 270.135 49.4655C270.613 50.2527 271.431 50.7857 272.587 51.0645C273.903 51.3815 275.03 51.1971 275.97 50.5114C276.914 49.803 277.58 48.6674 277.967 47.1046L280.087 38.5433L284.375 39.5764L280.201 56.4273L275.982 55.4106L276.529 53.2023L275.917 53.0547C275.504 53.5553 274.856 53.9873 273.973 54.3504C273.09 54.7136 271.888 54.7121 270.368 54.3459Z" fill="#FAD29C"/>
<path d="M287.331 58.8317L293.409 42.5704L297.488 44.0526L296.802 45.8886L297.394 46.1037C297.88 45.5357 298.455 45.1983 299.117 45.0915C299.802 44.9927 300.517 45.0788 301.263 45.3497L303.236 46.0669L301.864 49.7388L299.824 48.9977C298.772 48.6152 297.799 48.5846 296.907 48.9058C296.023 49.2052 295.364 49.9341 294.931 51.0925L291.476 60.3378L287.331 58.8317Z" fill="#FAD29C"/>
<path d="M303.13 65.0181L310.563 49.3299L314.569 51.1743L307.136 66.8625L303.13 65.0181ZM313.435 48.4176C312.715 48.0858 312.21 47.5708 311.921 46.8727C311.653 46.1843 311.699 45.4606 312.059 44.7015C312.419 43.9424 312.952 43.4431 313.66 43.2037C314.388 42.974 315.113 43.0251 315.833 43.3569C316.575 43.6985 317.08 44.2134 317.347 44.9018C317.615 45.5901 317.569 46.3139 317.209 47.073C316.85 47.8321 316.316 48.3314 315.609 48.5708C314.902 48.8102 314.177 48.7592 313.435 48.4176Z" fill="#FAD29C"/>
<path d="M318.808 62.8436L319.1 62.366C320.05 60.8139 321.172 59.6755 322.463 58.9509C323.767 58.2064 325.108 57.8499 326.484 57.8812C327.892 57.9047 329.208 58.2802 330.431 59.008C331.794 59.8192 332.681 60.6724 333.09 61.5675C333.5 62.4627 333.706 63.2644 333.711 63.9726L334.252 64.2947L335.349 62.5038L339.078 64.7228L328.404 82.1542C327.783 83.169 326.988 83.796 326.021 84.035C325.042 84.294 324.051 84.1252 323.048 83.5287L313.062 77.5875L315.073 74.3042L323.735 79.458C324.297 79.7921 324.76 79.6606 325.126 79.0636L327.484 75.2132L326.942 74.8911C326.547 75.0902 326.065 75.2515 325.497 75.375C324.941 75.4787 324.295 75.461 323.56 75.322C322.824 75.1829 321.995 74.839 321.073 74.2902C319.849 73.5625 318.893 72.5999 318.204 71.4025C317.547 70.1971 317.242 68.8622 317.291 67.398C317.352 65.9138 317.857 64.3957 318.808 62.8436ZM324.166 71.6512C325.329 72.3431 326.527 72.5536 327.76 72.2826C328.993 72.0117 330.018 71.2096 330.834 69.8763L331.017 69.5779C331.845 68.2247 332.088 66.9574 331.745 65.7757C331.433 64.5861 330.686 63.6394 329.503 62.9355C328.34 62.2435 327.142 62.0331 325.909 62.304C324.688 62.5551 323.664 63.3572 322.835 64.7103L322.652 65.0088C321.836 66.342 321.593 67.6094 321.925 68.8109C322.256 70.0125 323.003 70.9592 324.166 71.6512Z" fill="#FAD29C"/>
<path d="M342.04 89.1276C340.686 88.0565 339.715 86.828 339.129 85.4421C338.575 84.0525 338.426 82.6105 338.68 81.116C338.967 79.6179 339.685 78.1632 340.835 76.7519L341.1 76.4263C342.249 75.015 343.527 74.0181 344.934 73.4354C346.356 72.8347 347.808 72.6592 349.29 72.9089C350.786 73.1405 352.211 73.7918 353.566 74.863C354.902 75.9196 355.821 77.1372 356.323 78.5159C356.839 79.8765 356.945 81.2987 356.64 82.7823C356.349 84.2478 355.644 85.6682 354.524 87.0432L353.573 88.2102L343.663 80.3724C342.949 81.3241 342.685 82.3499 342.872 83.45C343.06 84.5501 343.629 85.4764 344.581 86.2291C345.551 86.9962 346.434 87.3527 347.23 87.2984C348.027 87.2441 348.75 87.0577 349.401 86.7393L351.035 90.4411C350.395 90.7089 349.6 90.9279 348.649 91.0979C347.732 91.2644 346.708 91.2282 345.579 90.9894C344.464 90.7325 343.284 90.1119 342.04 89.1276ZM345.768 77.8429L352.137 82.88C352.697 82.0441 352.885 81.1666 352.701 80.2475C352.535 79.3428 352.004 78.5359 351.107 77.8266C350.174 77.0884 349.241 76.7374 348.309 76.7736C347.377 76.8098 346.53 77.1662 345.768 77.8429Z" fill="#FAD29C"/>
<path d="M357.344 102.729C356.48 101.845 355.858 100.907 355.478 99.9171C355.115 98.9109 355.026 97.9182 355.211 96.9389C355.429 95.9603 355.97 95.0615 356.833 94.2427C357.697 93.4239 358.612 92.9418 359.579 92.7965C360.579 92.6519 361.573 92.802 362.562 93.2468C363.584 93.6923 364.552 94.3825 365.465 95.3173L368.791 98.7226L369.502 98.0483C370.094 97.4863 370.398 96.8451 370.411 96.1246C370.442 95.3881 370.066 94.6192 369.284 93.818C368.517 93.0334 367.761 92.6258 367.013 92.5951C366.283 92.5483 365.572 92.7394 364.883 93.1685L363.036 89.3247C363.875 88.9149 364.769 88.6781 365.718 88.6144C366.7 88.5513 367.711 88.7345 368.75 89.1639C369.822 89.594 370.88 90.3432 371.923 91.4115C373.521 93.0474 374.369 94.7345 374.469 96.4727C374.569 98.2109 373.831 99.8266 372.257 101.32L367.558 105.775C367.05 106.257 367.025 106.731 367.481 107.199L368.459 108.2L365.818 110.705L363.764 108.602C363.161 107.984 362.816 107.331 362.729 106.641C362.643 105.951 362.854 105.366 363.362 104.884L363.387 104.86L362.922 104.384C362.654 104.51 362.236 104.617 361.669 104.704C361.119 104.776 360.473 104.681 359.73 104.421C358.987 104.161 358.191 103.597 357.344 102.729ZM360.472 100.824C361.336 101.708 362.283 102.193 363.312 102.279C364.374 102.364 365.32 102.014 366.15 101.227L366.403 100.986L363.298 97.8065C362.727 97.2222 362.152 96.8836 361.572 96.7906C360.992 96.6976 360.473 96.8678 360.016 97.3013C359.559 97.7348 359.358 98.2633 359.412 98.8868C359.467 99.5103 359.82 100.156 360.472 100.824Z" fill="#FAD29C"/>
<path d="M373.417 120.796C372.606 119.713 372.139 118.582 372.014 117.403C371.923 116.23 372.153 115.096 372.704 114.003C373.256 112.91 374.107 111.945 375.259 111.109L383.64 105.019L386.283 108.549L378.185 114.433C377.128 115.202 376.524 116.03 376.373 116.918C376.236 117.825 376.524 118.755 377.237 119.708C378.048 120.791 379.036 121.371 380.2 121.448C381.384 121.511 382.627 121.069 383.93 120.122L391.065 114.938L393.707 118.468L379.664 128.673L377.063 125.198L378.903 123.861L378.526 123.357C377.886 123.476 377.109 123.391 376.194 123.104C375.28 122.817 374.354 122.047 373.417 120.796Z" fill="#FAD29C"/>
<path d="M38.4006 308.347C37.0668 305.622 36.7628 303.091 37.4886 300.753C38.2354 298.404 40.0202 296.531 42.8432 295.134L48.1127 292.525C50.9357 291.127 53.4899 290.852 55.7752 291.699C58.0814 292.536 59.9015 294.317 61.2353 297.041C62.5588 299.745 62.8373 302.197 62.0709 304.399C61.3355 306.612 59.6819 308.355 57.1098 309.628L56.9216 309.722L54.9209 305.635L55.2346 305.48C56.5311 304.838 57.418 303.943 57.8953 302.796C58.3829 301.669 58.2625 300.362 57.534 298.874C56.8158 297.407 55.802 296.477 54.4924 296.084C53.1828 295.691 51.7543 295.877 50.2069 296.643L44.8119 299.314C43.2854 300.07 42.2674 301.095 41.7577 302.389C41.2689 303.672 41.3836 305.047 42.1018 306.514C42.8303 308.002 43.7871 308.895 44.9724 309.194C46.1888 309.503 47.4349 309.341 48.7104 308.71L49.275 308.43L51.2757 312.517L50.8366 312.734C48.2645 314.008 45.8719 314.268 43.6588 313.515C41.4769 312.773 39.7241 311.05 38.4006 308.347Z" fill="#FAD29C"/>
<path d="M49.8281 328.82C48.907 327.359 48.3952 325.87 48.2926 324.351C48.222 322.839 48.5454 321.406 49.263 320.051C50.0125 318.702 51.1507 317.533 52.6777 316.543L53.03 316.314C54.557 315.324 56.0713 314.773 57.5729 314.661C59.0942 314.536 60.5068 314.829 61.8106 315.541C63.1341 316.24 64.2563 317.32 65.1774 318.78C66.086 320.221 66.5534 321.684 66.5795 323.168C66.6252 324.641 66.2671 326.041 65.5051 327.369C64.7627 328.685 63.6476 329.826 62.1598 330.791L60.8972 331.61L54.1572 320.922C53.1837 321.61 52.6078 322.511 52.4295 323.628C52.2511 324.745 52.4856 325.817 53.1328 326.843C53.7925 327.889 54.503 328.513 55.2645 328.714C56.0259 328.915 56.7615 328.967 57.4715 328.868L57.8089 332.945C57.1256 332.999 56.3126 332.957 55.3697 332.817C54.4588 332.685 53.5141 332.324 52.5358 331.735C51.577 331.134 50.6745 330.162 49.8281 328.82ZM56.9361 319.162L61.2676 326.03C62.0595 325.405 62.5171 324.622 62.6402 323.68C62.7758 322.757 62.5386 321.813 61.9287 320.846C61.2939 319.839 60.5353 319.205 59.653 318.943C58.7706 318.681 57.865 318.754 56.9361 319.162ZM64.9918 315.73L70.7192 315.102L73.3704 319.306L67.0455 318.987L64.9918 315.73Z" fill="#FAD29C"/>
<path d="M58.5802 340.861L72.1858 330.079L74.8158 333.531L73.2797 334.748L73.6615 335.249C74.3657 335.019 75.0225 335.034 75.632 335.295C76.2557 335.575 76.8079 336.03 77.2886 336.661L78.5612 338.332L75.489 340.767L74.174 339.04C73.4953 338.149 72.699 337.605 71.7852 337.406C70.8897 337.193 69.9573 337.47 68.9881 338.239L61.2527 344.369L58.5802 340.861Z" fill="#FAD29C"/>
<path d="M71.3443 357.326C70.5116 356.411 69.9169 355.447 69.5603 354.432C69.2206 353.401 69.1493 352.387 69.3464 351.391C69.5761 350.396 70.1207 349.487 70.9803 348.664C71.8398 347.842 72.7447 347.363 73.6949 347.228C74.6776 347.095 75.6501 347.262 76.6122 347.729C77.607 348.198 78.5443 348.915 79.4242 349.881L82.6297 353.4L83.3375 352.722C83.9275 352.157 84.235 351.508 84.2601 350.773C84.3021 350.023 83.9459 349.233 83.1917 348.405C82.4532 347.595 81.7179 347.168 80.9857 347.127C80.2703 347.069 79.5711 347.254 78.8881 347.681L77.14 343.736C77.9691 343.33 78.8491 343.101 79.7801 343.049C80.7437 342.999 81.7313 343.2 82.7429 343.652C83.7871 344.105 84.812 344.884 85.8176 345.988C87.3575 347.679 88.1623 349.411 88.232 351.185C88.3018 352.959 87.5529 354.596 85.9855 356.097L81.3083 360.574C80.8027 361.058 80.7699 361.542 81.2098 362.025L82.1526 363.06L79.5233 365.577L77.5435 363.404C76.9621 362.765 76.6345 362.094 76.5608 361.39C76.4871 360.685 76.703 360.091 77.2087 359.607L77.234 359.583L76.7861 359.091C76.521 359.216 76.11 359.319 75.5529 359.4C75.0127 359.465 74.3805 359.36 73.6562 359.084C72.932 358.809 72.1614 358.223 71.3443 357.326ZM74.4416 355.426C75.2744 356.34 76.1944 356.848 77.2017 356.949C78.2416 357.052 79.1745 356.708 80.0004 355.917L80.2532 355.675L77.2599 352.389C76.7099 351.785 76.1514 351.432 75.5843 351.329C75.0173 351.226 74.5062 351.392 74.0511 351.828C73.5961 352.264 73.3902 352.8 73.4337 353.436C73.4771 354.073 73.8131 354.736 74.4416 355.426Z" fill="#FAD29C"/>
<path d="M83.3952 370.843L94.1699 357.232L97.4858 360.032L96.3127 361.514L96.7941 361.92C97.3879 361.658 98.0825 361.589 98.878 361.711C99.688 361.815 100.53 362.236 101.403 362.974C102.348 363.772 102.954 364.603 103.22 365.469C103.501 366.317 103.554 367.171 103.379 368.03L103.86 368.437C104.627 368.107 105.438 367.984 106.295 368.066C107.152 368.149 108.088 368.619 109.105 369.477C109.925 370.17 110.52 370.977 110.89 371.9C111.292 372.82 111.4 373.811 111.212 374.874C111.058 375.934 110.546 377.013 109.677 378.111L102.595 387.057L99.2258 384.212L106.112 375.512C106.706 374.762 106.96 374.046 106.876 373.364C106.805 372.664 106.431 372.028 105.754 371.455C104.987 370.808 104.188 370.56 103.354 370.711C102.553 370.859 101.783 371.399 101.045 372.332L94.6798 380.373L91.3105 377.527L98.1968 368.828C98.7905 368.078 99.045 367.362 98.9603 366.68C98.8901 365.98 98.5162 365.343 97.8388 364.771C97.0722 364.124 96.2723 363.876 95.4389 364.027C94.6379 364.174 93.8681 364.715 93.1295 365.648L86.7646 373.689L83.3952 370.843Z" fill="#FAD29C"/>
<path d="M108.36 390.647L117.65 375.982L121.29 378.473L111.999 393.138L108.36 390.647ZM120.556 375.513C119.902 375.065 119.481 374.466 119.293 373.716C119.125 372.979 119.266 372.256 119.715 371.546C120.165 370.837 120.748 370.417 121.466 370.286C122.203 370.169 122.899 370.334 123.553 370.782C124.227 371.243 124.648 371.842 124.817 372.579C124.985 373.316 124.844 374.039 124.394 374.748C123.945 375.458 123.361 375.878 122.644 376.009C121.926 376.139 121.23 375.974 120.556 375.513Z" fill="#FAD29C"/>
<path d="M126.047 409.667L130.169 401.673L129.621 401.363C129.236 401.601 128.759 401.788 128.191 401.922C127.634 402.036 126.987 402.019 126.25 401.871C125.522 401.756 124.702 401.44 123.787 400.924C122.568 400.236 121.595 399.299 120.868 398.113C120.153 396.906 119.785 395.534 119.764 393.997C119.744 392.459 120.167 390.851 121.033 389.171L121.289 388.673C122.156 386.993 123.209 385.74 124.448 384.913C125.688 384.087 126.981 383.665 128.328 383.648C129.705 383.622 130.994 383.947 132.193 384.624C133.575 385.403 134.498 386.232 134.964 387.11C135.46 387.979 135.726 388.812 135.761 389.608L136.31 389.917L137.272 388.051L141.053 390.183L129.888 411.834L126.047 409.667ZM126.71 398.156C127.909 398.832 129.093 399.004 130.261 398.672C131.459 398.331 132.444 397.414 133.214 395.921L133.374 395.61C134.144 394.117 134.331 392.763 133.934 391.549C133.548 390.314 132.765 389.364 131.586 388.699C130.408 388.034 129.219 387.872 128.02 388.213C126.832 388.533 125.852 389.44 125.082 390.933L124.922 391.244C124.152 392.737 123.96 394.102 124.346 395.337C124.743 396.551 125.531 397.491 126.71 398.156Z" fill="#FAD29C"/>
<path d="M145.533 411.46C144.287 410.931 143.3 410.183 142.57 409.215C141.87 408.234 141.457 407.121 141.331 405.877C141.205 404.633 141.395 403.346 141.9 402.015L145.579 392.33L149.638 394.053L146.084 403.411C145.62 404.632 145.562 405.672 145.91 406.529C146.279 407.395 147.012 408.06 148.107 408.525C149.353 409.054 150.477 409.05 151.479 408.512C152.489 407.953 153.281 406.921 153.852 405.416L156.984 397.171L161.044 398.894L154.879 415.123L150.884 413.427L151.692 411.3L151.112 411.054C150.647 411.49 149.961 411.819 149.053 412.042C148.146 412.265 146.972 412.071 145.533 411.46Z" fill="#FAD29C"/>
<path d="M169.046 420.06C167.391 419.57 166.015 418.785 164.92 417.706C163.852 416.611 163.126 415.314 162.74 413.813C162.382 412.297 162.429 410.657 162.881 408.894L162.986 408.487C163.437 406.724 164.175 405.301 165.199 404.218C166.228 403.113 167.459 402.396 168.891 402.066C170.329 401.714 171.876 401.784 173.532 402.275C175.165 402.759 176.49 403.553 177.507 404.657C178.529 405.738 179.208 407.034 179.544 408.544C179.884 410.031 179.835 411.634 179.395 413.351L179.021 414.809L166.907 411.218C166.657 412.384 166.841 413.448 167.461 414.41C168.081 415.372 168.973 416.026 170.136 416.371C171.322 416.722 172.261 416.721 172.953 416.367C173.646 416.013 174.219 415.562 174.672 415.016L177.659 417.871C177.195 418.366 176.571 418.874 175.788 419.396C175.032 419.901 174.099 420.257 172.987 420.463C171.881 420.645 170.567 420.511 169.046 420.06ZM167.757 408.041L175.543 410.349C175.702 409.351 175.51 408.455 174.968 407.661C174.447 406.875 173.639 406.319 172.542 405.994C171.402 405.656 170.42 405.681 169.598 406.07C168.777 406.459 168.163 407.116 167.757 408.041Z" fill="#FAD29C"/>
<path d="M203.382 427.274C200.375 426.881 198.077 425.734 196.489 423.832C194.904 421.908 194.272 419.379 194.592 416.245L195.19 410.396C195.51 407.262 196.635 404.975 198.564 403.533C200.495 402.069 202.965 401.533 205.973 401.926C208.957 402.316 211.175 403.441 212.626 405.301C214.103 407.14 214.696 409.488 214.404 412.343L214.382 412.552L209.871 411.962L209.906 411.614C210.053 410.175 209.77 408.938 209.055 407.904C208.363 406.872 207.196 406.249 205.553 406.035C203.933 405.823 202.61 406.156 201.582 407.033C200.555 407.91 199.953 409.207 199.778 410.925L199.166 416.914C198.993 418.608 199.317 420.027 200.138 421.169C200.961 422.288 202.183 422.954 203.802 423.165C205.445 423.38 206.707 423.074 207.589 422.249C208.496 421.403 209.022 420.272 209.166 418.856L209.23 418.229L213.742 418.819L213.692 419.307C213.4 422.162 212.349 424.306 210.538 425.739C208.752 427.152 206.367 427.664 203.382 427.274Z" fill="#FAD29C"/>
<path d="M226.82 428.739C225.093 428.728 223.536 428.369 222.149 427.66C220.762 426.952 219.662 425.93 218.849 424.595C218.036 423.26 217.616 421.66 217.588 419.793L217.58 419.233C217.552 417.367 217.925 415.771 218.699 414.446C219.472 413.121 220.542 412.113 221.908 411.422C223.274 410.731 224.821 410.391 226.548 410.401C228.274 410.412 229.831 410.772 231.218 411.48C232.605 412.189 233.705 413.211 234.518 414.545C235.331 415.88 235.752 417.481 235.779 419.347L235.788 419.907C235.815 421.774 235.443 423.369 234.669 424.694C233.895 426.019 232.825 427.027 231.459 427.719C230.093 428.41 228.547 428.75 226.82 428.739ZM226.762 424.82C228.115 424.828 229.229 424.404 230.102 423.546C230.976 422.665 231.4 421.408 231.376 419.775L231.371 419.425C231.347 417.792 230.885 416.541 229.985 415.672C229.109 414.78 227.982 414.33 226.606 414.321C225.252 414.312 224.139 414.749 223.266 415.63C222.392 416.487 221.967 417.733 221.991 419.366L221.996 419.716C222.021 421.349 222.483 422.612 223.383 423.504C224.282 424.373 225.408 424.811 226.762 424.82Z" fill="#FAD29C"/>
<path d="M241.715 427.893L239.548 410.669L243.861 410.185L244.145 412.442L244.771 412.372C244.974 411.738 245.424 411.113 246.122 410.494C246.817 409.853 247.942 409.445 249.495 409.27C250.84 409.119 252.051 409.3 253.126 409.813C254.222 410.301 255.117 411.057 255.81 412.083C256.501 413.085 256.936 414.304 257.117 415.739L258.41 426.018L254.028 426.51L252.778 416.579C252.615 415.282 252.168 414.346 251.437 413.771C250.73 413.193 249.785 412.971 248.602 413.103C247.257 413.255 246.271 413.823 245.642 414.809C245.011 415.772 244.796 417.053 244.997 418.65L246.098 427.401L241.715 427.893Z" fill="#FAD29C"/>
<path d="M270.907 423.425C269.789 423.665 268.801 423.519 267.942 422.987C267.102 422.428 266.553 421.567 266.296 420.405L264.18 410.837L259.936 411.748L259.15 408.193L263.394 407.283L262.23 402.02L266.541 401.094L267.705 406.357L272.359 405.358L273.145 408.912L268.491 409.911L270.441 418.728C270.593 419.411 270.987 419.685 271.626 419.547L274.911 418.842L275.697 422.396L270.907 423.425Z" fill="#FAD29C"/>
<path d="M289.367 418.831C287.725 419.367 286.161 419.497 284.673 419.222C283.2 418.918 281.903 418.249 280.782 417.216C279.677 416.154 278.842 414.757 278.28 413.026L278.15 412.626C277.588 410.896 277.445 409.285 277.721 407.796C277.991 406.284 278.635 404.982 279.653 403.888C280.664 402.772 281.991 401.946 283.632 401.41C285.251 400.882 286.779 400.788 288.214 401.129C289.643 401.448 290.899 402.142 291.983 403.212C293.059 404.259 293.871 405.626 294.419 407.313L294.885 408.744L282.874 412.667C283.286 413.784 284.007 414.568 285.036 415.017C286.065 415.466 287.156 415.502 288.31 415.126C289.485 414.742 290.268 414.204 290.656 413.513C291.045 412.821 291.282 412.118 291.369 411.402L295.38 412.08C295.257 412.759 295.008 413.54 294.632 414.423C294.272 415.277 293.683 416.108 292.866 416.915C292.041 417.7 290.875 418.338 289.367 418.831ZM281.89 409.527L289.609 407.006C289.21 406.081 288.573 405.442 287.698 405.09C286.845 404.73 285.876 404.728 284.789 405.083C283.657 405.452 282.853 406.034 282.375 406.828C281.897 407.623 281.736 408.522 281.89 409.527Z" fill="#FAD29C"/>
<path d="M302.858 413.763L295.46 398.058L299.365 396.164L300.17 397.874L300.737 397.599C300.762 396.939 300.999 396.266 301.45 395.581C301.891 394.874 302.626 394.272 303.654 393.773C304.767 393.233 305.764 393.022 306.644 393.139C307.515 393.236 308.293 393.545 308.978 394.069L309.545 393.794C309.584 392.945 309.824 392.142 310.266 391.383C310.708 390.624 311.527 389.954 312.724 389.374C313.69 388.905 314.66 388.694 315.636 388.739C316.623 388.753 317.546 389.071 318.406 389.691C319.276 390.28 320.01 391.208 320.606 392.474L325.469 402.796L321.501 404.721L316.773 394.684C316.365 393.818 315.841 393.281 315.202 393.073C314.552 392.844 313.828 392.922 313.03 393.309C312.128 393.747 311.564 394.384 311.338 395.219C311.124 396.023 311.27 396.964 311.777 398.04L316.147 407.317L312.179 409.242L307.451 399.205C307.044 398.339 306.52 397.802 305.88 397.594C305.23 397.365 304.507 397.443 303.709 397.83C302.806 398.268 302.242 398.905 302.017 399.74C301.802 400.544 301.949 401.485 302.456 402.561L306.826 411.839L302.858 413.763Z" fill="#FAD29C"/>
<path d="M334.498 405.377L321.297 384.904L324.895 382.477L326.033 384.241L326.555 383.889C326.517 383.098 326.707 382.253 327.125 381.351C327.531 380.43 328.381 379.533 329.677 378.658C330.838 377.875 332.101 377.445 333.467 377.368C334.82 377.271 336.157 377.579 337.477 378.292C338.797 379.005 339.97 380.156 340.994 381.744L341.297 382.215C342.322 383.804 342.894 385.359 343.015 386.881C343.137 388.404 342.894 389.792 342.286 391.046C341.667 392.28 340.777 393.289 339.616 394.072C338.746 394.659 337.941 395.047 337.203 395.236C336.496 395.431 335.858 395.496 335.288 395.431C334.725 395.332 334.229 395.188 333.801 394.998L333.279 395.351L338.154 402.91L334.498 405.377ZM336.427 391.58C337.568 390.81 338.273 389.814 338.54 388.593C338.814 387.339 338.495 386.006 337.585 384.594L337.395 384.299C336.485 382.888 335.418 382.073 334.196 381.857C332.961 381.621 331.783 381.881 330.661 382.638C329.539 383.395 328.842 384.4 328.568 385.655C328.281 386.889 328.593 388.212 329.504 389.624L329.693 389.918C330.604 391.33 331.676 392.154 332.911 392.391C334.133 392.607 335.305 392.337 336.427 391.58Z" fill="#FAD29C"/>
<path d="M357.081 380.641C355.775 381.771 354.381 382.516 352.896 382.875C351.412 383.235 349.949 383.159 348.507 382.649C347.065 382.139 345.753 381.162 344.571 379.717L344.216 379.284C343.034 377.839 342.322 376.343 342.079 374.794C341.837 373.246 342.014 371.75 342.612 370.307C343.209 368.864 344.161 367.578 345.466 366.448C346.771 365.317 348.166 364.573 349.65 364.213C351.134 363.854 352.598 363.929 354.04 364.439C355.482 364.95 356.794 365.927 357.976 367.371L358.331 367.805C359.513 369.249 360.225 370.746 360.468 372.295C360.71 373.843 360.533 375.339 359.935 376.782C359.338 378.224 358.386 379.511 357.081 380.641ZM354.598 377.607C355.621 376.722 356.195 375.654 356.318 374.406C356.427 373.139 355.964 371.874 354.93 370.61L354.708 370.339C353.674 369.075 352.548 368.399 351.331 368.311C350.117 368.19 348.989 368.58 347.949 369.481C346.925 370.367 346.359 371.443 346.251 372.71C346.127 373.958 346.582 375.215 347.617 376.479L347.838 376.749C348.873 378.014 350.006 378.698 351.238 378.804C352.455 378.892 353.575 378.493 354.598 377.607Z" fill="#FAD29C"/>
<path d="M367.692 370.232L355.482 357.891L358.467 354.741L359.846 356.134L360.279 355.677C359.963 354.993 359.891 354.323 360.063 353.668C360.25 352.995 360.617 352.371 361.163 351.795L362.607 350.271L365.364 353.057L363.871 354.632C363.101 355.445 362.68 356.33 362.61 357.286C362.522 358.226 362.914 359.136 363.783 360.015L370.725 367.031L367.692 370.232Z" fill="#FAD29C"/>
<path d="M381.666 355.445C380.9 356.416 380.053 357.15 379.125 357.647C378.18 358.129 377.215 358.334 376.231 358.263C375.243 358.159 374.296 357.721 373.389 356.951C372.482 356.181 371.9 355.319 371.642 354.366C371.382 353.38 371.411 352.364 371.731 351.32C372.047 350.243 372.61 349.192 373.42 348.166L376.371 344.431L375.624 343.797C375.002 343.268 374.336 343.039 373.626 343.11C372.899 343.165 372.188 343.632 371.494 344.511C370.814 345.371 370.503 346.178 370.562 346.932C370.603 347.67 370.875 348.36 371.378 349.002L367.821 351.304C367.319 350.51 366.98 349.641 366.805 348.697C366.626 347.719 366.686 346.684 366.985 345.592C367.28 344.466 367.89 343.317 368.816 342.145C370.234 340.351 371.791 339.302 373.487 338.998C375.182 338.695 376.857 339.246 378.511 340.65L383.447 344.842C383.98 345.295 384.449 345.265 384.854 344.753L385.722 343.654L388.497 346.011L386.674 348.318C386.139 348.995 385.538 349.417 384.87 349.585C384.203 349.752 383.603 349.61 383.069 349.156L383.042 349.134L382.63 349.656C382.786 349.91 382.94 350.317 383.093 350.875C383.229 351.418 383.213 352.078 383.046 352.854C382.878 353.63 382.419 354.493 381.666 355.445ZM379.423 352.53C380.189 351.56 380.554 350.554 380.515 349.511C380.474 348.436 380.017 347.528 379.145 346.788L378.879 346.561L376.123 350.049C375.617 350.69 375.352 351.306 375.33 351.899C375.307 352.492 375.536 352.992 376.016 353.4C376.496 353.808 377.04 353.948 377.646 353.82C378.252 353.693 378.844 353.263 379.423 352.53Z" fill="#FAD29C"/>
<path d="M391.271 341.856L377.19 331.702L379.635 328.031L393.715 338.185L391.271 341.856ZM376.766 328.679C376.326 329.339 375.743 329.753 375.016 329.918C374.303 330.065 373.605 329.893 372.924 329.401C372.242 328.91 371.842 328.291 371.723 327.544C371.617 326.777 371.784 326.064 372.224 325.404C372.676 324.724 373.26 324.311 373.973 324.164C374.687 324.018 375.385 324.19 376.066 324.682C376.747 325.173 377.147 325.792 377.266 326.539C377.385 327.286 377.219 327.999 376.766 328.679Z" fill="#FAD29C"/>
<path d="M397.497 332.662L382.621 323.712L384.715 319.911L386.664 321.083L386.968 320.532C386.583 319.974 386.346 319.219 386.258 318.268C386.15 317.305 386.472 316.138 387.226 314.769C387.879 313.583 388.717 312.714 389.741 312.159C390.756 311.573 391.869 311.317 393.078 311.392C394.268 311.454 395.483 311.859 396.723 312.604L405.6 317.945L403.473 321.808L394.895 316.648C393.776 315.974 392.779 315.755 391.904 315.991C391.04 316.206 390.321 316.835 389.747 317.877C389.094 319.063 388.978 320.217 389.397 321.34C389.797 322.451 390.687 323.422 392.066 324.252L399.624 328.799L397.497 332.662Z" fill="#FAD29C"/>
<path d="M412.046 304.955C411.382 306.549 410.466 307.809 409.298 308.733C408.118 309.627 406.781 310.139 405.286 310.271C403.779 310.372 402.2 310.04 400.547 309.278L400.166 309.102C398.513 308.339 397.222 307.345 396.293 306.12C395.342 304.885 394.79 303.513 394.635 302.003C394.46 300.484 394.704 298.927 395.367 297.333C396.022 295.761 396.941 294.554 398.124 293.714C399.287 292.864 400.617 292.399 402.115 292.32C403.591 292.231 405.135 292.558 406.745 293.302L408.111 293.932L403.254 305.597C404.353 306.052 405.402 306.049 406.403 305.586C407.404 305.124 408.138 304.332 408.604 303.212C409.079 302.071 409.185 301.118 408.922 300.355C408.659 299.591 408.29 298.933 407.813 298.379L410.915 295.843C411.34 296.399 411.76 297.119 412.174 298.004C412.577 298.857 412.814 299.865 412.885 301.028C412.935 302.181 412.656 303.49 412.046 304.955ZM400.281 304.185L403.402 296.689C402.455 296.355 401.567 296.394 400.738 296.808C399.918 297.2 399.289 297.924 398.849 298.979C398.392 300.078 398.304 301.077 398.586 301.978C398.868 302.878 399.433 303.614 400.281 304.185Z" fill="#FAD29C"/>
</svg>
